# xmcd
# 
# Track frame offsets:
#     150
#     12337
#     18687
#     32530
#     39857
#     53455
#     69282
#     82847
#     100670
#     110457
#     117697
#     124465
#     134740
#     145650
#     160077
#     172125
#     180902
#     213025
#     224237
# 
# Disc length: 3352
# 
# Revision: 27
# Processed by: cddbd v1.5.2PL0 Copyright (c) Steve Scherf et al.
# Submitted via: fre:ac v1.0.17
# 
DISCID=060d1613
DTITLE=Johnny Cash - At Folsom Prison [RM 1999]
DYEAR=1968
DGENRE=Country
TTITLE0=Folsom Prison Blues
TTITLE1=Busted
TTITLE2=Dark as the Dungeon
TTITLE3=I Still Miss Someone
TTITLE4=Cocaine Blues
TTITLE5=25 Minutes to Go
TTITLE6=Orange Blossom Special
TTITLE7=The Long Black Veil
TTITLE8=Send a Picture of Mother
TTITLE9=The Wall
TTITLE10=Dirty Old Egg-Suckin' Dog
TTITLE11=Flushed from the Bathroom of Your Heart
TTITLE12=Joe Bean
TTITLE13=Jackson (w- June Carter)
TTITLE14=Give My Love to Rose (w- June Carter)
TTITLE15=I Got Stripes
TTITLE16=The Legend of John Henry's Hammer
TTITLE17=Green, Green Grass of Home
TTITLE18=Greystone Chapel
EXTD=Johhnny Cash- At Folsom Prison Live Performance
EXTT0=
EXTT1=
EXTT2=
EXTT3=
EXTT4=
EXTT5=
EXTT6=
EXTT7=
EXTT8=
EXTT9=
EXTT10=
EXTT11=
EXTT12=
EXTT13=
EXTT14=
EXTT15=
EXTT16=
EXTT17=
EXTT18=
PLAYORDER=
